# Blender 4.4.0
# www.blender.org
o Star
v -1.000000 -1.000000 0.000000
v -1.000000 1.000000 0.000000
v 1.000000 -1.000000 0.000000
v 1.000000 1.000000 0.000000
v 0.000000 -4.000000 0.000000
v -4.000000 0.000000 0.000000
v 0.000000 4.000000 0.000000
v 4.000000 0.000000 0.000000
v 0.000000 0.000000 -2.000000
vn 0.8018 0.2673 -0.5345
vn 0.2673 -0.8018 -0.5345
vn -0.2673 -0.8018 -0.5345
vn -0.8018 0.2673 -0.5345
vn -0.8018 -0.2673 -0.5345
vn -0.2673 0.8018 -0.5345
vn 0.8018 -0.2673 -0.5345
vn 0.2673 0.8018 -0.5345
vt 0.500000 0.500000
vt 1.000000 0.500000
vt 1.000000 1.000000
vt 0.500000 1.000000
vt 0.000000 1.000000
vt 0.000000 0.000000
vt 0.500000 0.000000
vt 1.000000 0.000000
vt 0.000000 0.500000
s 0
f 9/1/1 7/2/1 4/3/1
f 9/1/2 8/4/2 3/5/2
f 1/6/3 6/7/3 9/1/3
f 2/8/4 7/2/4 9/1/4
f 5/9/5 1/6/5 9/1/5
f 6/7/6 2/8/6 9/1/6
f 5/9/7 9/1/7 3/5/7
f 8/4/8 9/1/8 4/3/8
